M48
;GenerationSoftware,Autodesk,EAGLE,9.6.2*%
;CreationDate,2022-04-11T17:44:43Z*%
FMAT,2
ICI,OFF
INCH,TZ,00.0000
T3C0.0200
T2C0.0394
T1C0.0400
%
G90
M72
T1
X4400Y1050
X3400Y1150
X2400Y1050
X1400Y1150
T2
X6200Y1000
X7200Y1000
X8200Y1000
X9200Y1000
X10200Y1000
X11200Y1000
X12200Y1000
X13200Y1000
X14200Y1000
X15200Y1000
X16200Y1000
T3
X8200Y5000
X11600Y7800
X10100Y8200
X9500Y8200
X10700Y4800
X9000Y7300
X9950Y2750
X8750Y6850
X8500Y8400
X8000Y8400
X9000Y8400
X10100Y5500
X10950Y7600
X8200Y4500
X9950Y3250
M30