G04 EAGLE Gerber RS-274X export*
G75*
%MOIN*%
%FSLAX36Y36*%
%LPD*%
%INTop Copper Layer*%
%IPPOS*%
%AMOC8*
5,1,8,0,0,1.08239X$1,22.5*%
G01*
%ADD10R,0.039370X0.043307*%
%ADD11R,0.082677X0.055118*%
%ADD12R,0.011811X0.047236*%
%ADD13R,0.023622X0.027559*%
%ADD14R,0.043307X0.039370*%
%ADD15R,0.027559X0.023622*%
%ADD16C,0.066000*%
%ADD17R,0.074000X0.074000*%
%ADD18C,0.074000*%
%ADD19C,0.006000*%
%ADD20C,0.040000*%


D10*
X570000Y513465D03*
X570000Y446535D03*
X570000Y676535D03*
X570000Y743465D03*
D11*
X90866Y671417D03*
X449134Y671417D03*
X449134Y848583D03*
X90866Y848583D03*
X90866Y271417D03*
X449134Y271417D03*
X449134Y448583D03*
X90866Y448583D03*
D12*
X1045154Y385827D03*
X1019563Y385827D03*
X993976Y385827D03*
X968386Y385827D03*
X942795Y385827D03*
X917205Y385827D03*
X891614Y385827D03*
X866024Y385827D03*
X1045154Y614177D03*
X1019563Y614177D03*
X993976Y614177D03*
X968386Y614177D03*
X942795Y614177D03*
X917205Y614177D03*
X891614Y614177D03*
X866024Y614177D03*
X840433Y614177D03*
X814846Y614177D03*
X840433Y385827D03*
X814846Y385827D03*
D13*
X1299685Y580000D03*
X1260315Y580000D03*
D14*
X1293465Y780000D03*
X1226535Y780000D03*
D13*
X1050315Y240000D03*
X1089685Y240000D03*
D15*
X1120000Y409685D03*
X1120000Y370315D03*
D13*
X1130315Y480000D03*
X1169685Y480000D03*
D16*
X620000Y100000D03*
X720000Y100000D03*
X820000Y100000D03*
X920000Y100000D03*
X1020000Y100000D03*
X1120000Y100000D03*
X1220000Y100000D03*
X1320000Y100000D03*
X1420000Y100000D03*
X1520000Y100000D03*
X1620000Y100000D03*
D17*
X440000Y105000D03*
D18*
X340000Y115000D03*
X240000Y105000D03*
X140000Y115000D03*
D19*
X559830Y750000D02*
X449134Y848583D01*
X570000Y750000D02*
X570000Y743465D01*
X570000Y750000D02*
X559830Y750000D01*
X570000Y743465D02*
X640000Y673465D01*
X640000Y380000D01*
X809020Y380000D01*
X814846Y385827D01*
X580000Y436535D02*
X570000Y446535D01*
X580000Y436535D02*
X580000Y320000D01*
X840000Y320000D01*
X840433Y320433D01*
X840433Y385827D01*
X570000Y446535D02*
X451181Y446535D01*
X449134Y448583D01*
X345000Y271417D02*
X345000Y670000D01*
X470000Y250000D02*
X470000Y135000D01*
X470000Y250000D02*
X449134Y271417D01*
X470000Y135000D02*
X440000Y105000D01*
X470000Y275000D02*
X720000Y275000D01*
X470000Y275000D02*
X449134Y271417D01*
X345000Y271417D01*
X720000Y275000D02*
X820000Y175000D01*
X820000Y100000D01*
X570000Y513465D02*
X570000Y575000D01*
X449134Y671417D02*
X346417Y671417D01*
X345000Y670000D01*
X449134Y671417D02*
X545551Y575000D01*
X570000Y575000D01*
D20*
X820000Y500000D03*
D19*
X860000Y460000D02*
X1045154Y460000D01*
X860000Y460000D02*
X820000Y500000D01*
X570000Y575000D02*
X570000Y676535D01*
D20*
X1160000Y780000D03*
D19*
X1226535Y780000D01*
X1045154Y460000D02*
X1045154Y385827D01*
X917205Y385827D02*
X917205Y302795D01*
X1120000Y100000D01*
X993976Y614177D02*
X993976Y803976D01*
X1010000Y820000D01*
D20*
X1010000Y820000D03*
D19*
X968386Y801614D02*
X968386Y614177D01*
X968386Y801614D02*
X950000Y820000D01*
D20*
X950000Y820000D03*
D19*
X968386Y614177D02*
X970000Y612563D01*
X970000Y520000D01*
X1110000Y520000D01*
X1130315Y499685D01*
X1130315Y480000D01*
X1070000Y480000D02*
X1055000Y495000D01*
D20*
X1070000Y480000D03*
D19*
X1055000Y495000D02*
X920000Y495000D01*
X1094789Y460913D02*
X1120000Y409685D01*
X1094789Y460913D02*
X1070000Y480000D01*
X920000Y611382D02*
X917205Y614177D01*
X920000Y611382D02*
X920000Y495000D01*
X917205Y614177D02*
X917205Y712795D01*
X900000Y730000D01*
D20*
X900000Y730000D03*
D19*
X1020000Y275000D02*
X1045000Y250000D01*
X1020000Y275000D02*
X995000Y275000D01*
X1045000Y250000D02*
X1050315Y240000D01*
X891614Y661045D02*
X875000Y685000D01*
X891614Y661045D02*
X891614Y614177D01*
D20*
X995000Y275000D03*
X875000Y685000D03*
X850000Y840000D03*
D19*
X840433Y830433D02*
X840433Y614177D01*
X840433Y830433D02*
X850000Y840000D01*
D20*
X800000Y840000D03*
D19*
X814846Y745154D02*
X814846Y614177D01*
X814846Y745154D02*
X800000Y760000D01*
X800000Y840000D01*
X1293465Y780000D02*
X1293465Y586220D01*
X1299685Y580000D01*
D20*
X900000Y840000D03*
D19*
X928988Y840000D02*
X937988Y849000D01*
X928988Y840000D02*
X900000Y840000D01*
X1224465Y849000D02*
X1293465Y780000D01*
X1224465Y849000D02*
X937988Y849000D01*
X870000Y50000D02*
X770000Y50000D01*
X720000Y100000D01*
X770000Y50000D02*
X355000Y50000D01*
X340000Y55000D01*
X340000Y115000D01*
X1175000Y370315D02*
X1175000Y480000D01*
X1175000Y370315D02*
X1175000Y250000D01*
X1209724Y580000D02*
X1260315Y580000D01*
X1209724Y580000D02*
X1189724Y600000D01*
X1170000Y600000D01*
X1045000Y600000D01*
X1045154Y614177D01*
X870000Y50000D02*
X895000Y25000D01*
X1420000Y25000D01*
X1470000Y75000D01*
X1470000Y250000D01*
X1175000Y250000D02*
X1095000Y250000D01*
X1175000Y250000D02*
X1470000Y250000D01*
X1095000Y250000D02*
X1089685Y240000D01*
X1120000Y370315D02*
X1175000Y370315D01*
X1175000Y480000D02*
X1169685Y480000D01*
D20*
X1010000Y550000D03*
D19*
X1045154Y585154D02*
X1045154Y614177D01*
X1045154Y585154D02*
X1010000Y550000D01*
X1169685Y480000D02*
X1170000Y480315D01*
X1170000Y600000D01*
X870000Y375000D02*
X870000Y275000D01*
X920000Y275000D01*
X1070000Y125000D01*
X1070000Y50000D01*
X1370000Y50000D01*
X1420000Y100000D01*
X870000Y375000D02*
X866024Y385827D01*
X1020000Y735000D02*
X1020000Y760000D01*
X1095000Y760000D01*
X1020000Y735000D02*
X1019563Y724177D01*
X1019563Y614177D01*
D20*
X1095000Y760000D03*
D19*
X970000Y440000D02*
X970000Y400000D01*
X970000Y440000D02*
X830000Y440000D01*
X820000Y450000D01*
X970000Y400000D02*
X968386Y385827D01*
D20*
X820000Y450000D03*
D19*
X945000Y375000D02*
X945000Y325000D01*
X995000Y325000D01*
X945000Y375000D02*
X942795Y385827D01*
D20*
X995000Y325000D03*
M02*
