G04 EAGLE Gerber RS-274X export*
G75*
%MOIN*%
%FSLAX36Y36*%
%LPD*%
%INBottom Copper Layer*%
%IPPOS*%
%AMOC8*
5,1,8,0,0,1.08239X$1,22.5*%
G01*
%ADD10C,0.066000*%
%ADD11R,0.074000X0.074000*%
%ADD12C,0.074000*%
%ADD13C,0.006000*%
%ADD14C,0.041654*%


D10*
X150000Y1300000D03*
X250000Y1300000D03*
X350000Y1300000D03*
X450000Y1300000D03*
X550000Y1300000D03*
X650000Y1300000D03*
X750000Y1300000D03*
X850000Y1300000D03*
X950000Y1300000D03*
X1050000Y1300000D03*
X1150000Y1300000D03*
D11*
X155000Y950000D03*
D12*
X145000Y850000D03*
X155000Y750000D03*
X145000Y650000D03*
D13*
X600000Y550000D02*
X800000Y550000D01*
X900000Y450000D01*
X900000Y200000D02*
X1000000Y100000D01*
X900000Y200000D02*
X900000Y250000D01*
D14*
X900000Y450000D03*
X1000000Y100000D03*
X900000Y250000D03*
X600000Y550000D03*
D13*
X350000Y550000D02*
X350000Y650000D01*
X1100000Y800000D02*
X1150000Y800000D01*
X1200000Y850000D01*
X1200000Y900000D01*
X1150000Y950000D01*
X1050000Y650000D02*
X900000Y500000D01*
D14*
X1050000Y650000D03*
X1100000Y800000D03*
X1150000Y950000D03*
X350000Y650000D03*
X900000Y500000D03*
X350000Y550000D03*
D13*
X700000Y1200000D02*
X1600000Y1200000D01*
D14*
X700000Y1200000D03*
X1600000Y1200000D03*
D13*
X800000Y500000D02*
X800000Y400000D01*
X700000Y800000D02*
X900000Y1000000D01*
D14*
X900000Y1000000D03*
X800000Y400000D03*
X800000Y500000D03*
X700000Y800000D03*
D13*
X1450000Y1150000D02*
X1600000Y1150000D01*
X1650000Y1200000D01*
X1100000Y1250000D02*
X650000Y1250000D01*
X600000Y1200000D01*
X800000Y1000000D02*
X850000Y1000000D01*
X800000Y1000000D02*
X750000Y1050000D01*
X1150000Y350000D02*
X1150000Y300000D01*
X1150000Y350000D02*
X1200000Y400000D01*
X1450000Y400000D01*
X1500000Y450000D01*
X1500000Y950000D01*
X1450000Y1000000D01*
X1400000Y1000000D01*
D14*
X1100000Y1250000D03*
X850000Y1000000D03*
X1650000Y1200000D03*
X750000Y1050000D03*
X1450000Y1150000D03*
X1150000Y300000D03*
X1400000Y1000000D03*
X600000Y1200000D03*
D13*
X1250000Y750000D02*
X1250000Y600000D01*
X1250000Y750000D02*
X1300000Y800000D01*
X1300000Y900000D01*
X1250000Y950000D01*
X1100000Y350000D02*
X1100000Y250000D01*
X1100000Y350000D02*
X1150000Y400000D01*
X1150000Y450000D01*
X1250000Y950000D02*
X1250000Y1000000D01*
X1100000Y1150000D01*
X950000Y1150000D01*
D14*
X1150000Y450000D03*
X1250000Y600000D03*
X1100000Y250000D03*
X950000Y1150000D03*
D13*
X1250000Y800000D02*
X1200000Y750000D01*
X1150000Y850000D02*
X1100000Y900000D01*
X1000000Y900000D01*
X950000Y950000D01*
X950000Y1000000D01*
X450000Y1150000D02*
X400000Y1100000D01*
X450000Y1150000D02*
X750000Y1150000D01*
X850000Y1050000D01*
X1000000Y1050000D01*
X1050000Y1050000D01*
X1000000Y1050000D02*
X950000Y1000000D01*
X1200000Y550000D02*
X1100000Y450000D01*
X1200000Y550000D02*
X1200000Y750000D01*
D14*
X1100000Y450000D03*
X1150000Y850000D03*
X1250000Y800000D03*
X1050000Y1050000D03*
X400000Y1100000D03*
D13*
X1000000Y450000D02*
X1000000Y200000D01*
X1000000Y450000D02*
X1050000Y500000D01*
D14*
X1050000Y500000D03*
X1000000Y200000D03*
D13*
X950000Y200000D02*
X950000Y450000D01*
X1050000Y800000D02*
X1050000Y850000D01*
X1050000Y800000D02*
X1100000Y750000D01*
X1100000Y600000D02*
X950000Y450000D01*
X1100000Y600000D02*
X1100000Y750000D01*
D14*
X1050000Y850000D03*
X950000Y200000D03*
D13*
X850000Y550000D02*
X800000Y600000D01*
X850000Y550000D02*
X900000Y550000D01*
X950000Y600000D01*
X950000Y650000D01*
X1000000Y850000D02*
X950000Y900000D01*
X1000000Y850000D02*
X1000000Y800000D01*
D14*
X950000Y900000D03*
X800000Y600000D03*
X1000000Y800000D03*
X950000Y650000D03*
D13*
X400000Y800000D02*
X250000Y800000D01*
X400000Y800000D02*
X450000Y850000D01*
X1400000Y650000D02*
X1450000Y700000D01*
X1450000Y900000D01*
X200000Y1200000D02*
X100000Y1100000D01*
X850000Y700000D02*
X1000000Y700000D01*
X1200000Y450000D02*
X1300000Y450000D01*
X1200000Y450000D02*
X1200000Y500000D01*
D14*
X200000Y1200000D03*
X1300000Y450000D03*
X450000Y850000D03*
X1200000Y500000D03*
X100000Y1100000D03*
X850000Y700000D03*
X1450000Y900000D03*
X1400000Y650000D03*
X250000Y800000D03*
X1000000Y700000D03*
D13*
X1550000Y1000000D02*
X1550000Y200000D01*
X1550000Y1000000D02*
X1400000Y1150000D01*
D14*
X1550000Y200000D03*
X1400000Y1150000D03*
D13*
X100000Y1350000D02*
X50000Y1300000D01*
X50000Y600000D01*
X100000Y550000D01*
X1650000Y1050000D02*
X1650000Y1100000D01*
X1700000Y1150000D01*
X1700000Y1200000D01*
X1550000Y1350000D01*
X100000Y1350000D01*
D14*
X1650000Y1050000D03*
X100000Y550000D03*
D13*
X250000Y600000D02*
X250000Y700000D01*
X200000Y750000D01*
X155000Y750000D01*
X1500000Y50000D02*
X1550000Y50000D01*
X1500000Y50000D02*
X500000Y50000D01*
X400000Y150000D01*
X400000Y450000D01*
X250000Y600000D01*
X1650000Y250000D02*
X1650000Y100000D01*
X1600000Y50000D01*
X1550000Y50000D01*
D14*
X1650000Y250000D03*
D13*
X1200000Y950000D02*
X1200000Y1000000D01*
X1100000Y1100000D02*
X900000Y1100000D01*
X1100000Y1100000D02*
X1200000Y1000000D01*
D14*
X1200000Y950000D03*
X1100000Y850000D03*
X900000Y1100000D03*
D13*
X1250000Y900000D02*
X1250000Y850000D01*
X1150000Y750000D01*
X1050000Y450000D02*
X1050000Y350000D01*
X1150000Y550000D02*
X1150000Y750000D01*
X1150000Y550000D02*
X1050000Y450000D01*
D14*
X1050000Y350000D03*
X1250000Y900000D03*
M02*
