G04 EAGLE Gerber RS-274X export*
G75*
%MOIN*%
%FSLAX36Y36*%
%LPD*%
%INTop Copper Layer*%
%IPPOS*%
%AMOC8*
5,1,8,0,0,1.08239X$1,22.5*%
G01*
%ADD10R,0.043307X0.039370*%
%ADD11C,0.066000*%
%ADD12R,0.023622X0.027559*%
%ADD13R,0.055118X0.082677*%
%ADD14R,0.074000X0.074000*%
%ADD15C,0.074000*%
%ADD16R,0.047236X0.011811*%
%ADD17R,0.017000X0.014000*%
%ADD18R,0.014000X0.017000*%
%ADD19C,0.006000*%
%ADD20C,0.041654*%


D10*
X416535Y700000D03*
X483465Y700000D03*
X966535Y750000D03*
X1033465Y750000D03*
X1316535Y750000D03*
X1383465Y750000D03*
X866535Y400000D03*
X933465Y400000D03*
D11*
X150000Y1300000D03*
X250000Y1300000D03*
X350000Y1300000D03*
X450000Y1300000D03*
X550000Y1300000D03*
X650000Y1300000D03*
X750000Y1300000D03*
X850000Y1300000D03*
X950000Y1300000D03*
X1050000Y1300000D03*
X1150000Y1300000D03*
D12*
X730315Y700000D03*
X769685Y700000D03*
X430315Y900000D03*
X469685Y900000D03*
X1280315Y550000D03*
X1319685Y550000D03*
X1330315Y950000D03*
X1369685Y950000D03*
X730315Y950000D03*
X769685Y950000D03*
D13*
X738583Y120866D03*
X738583Y479134D03*
X561417Y479134D03*
X561417Y120866D03*
X338583Y120866D03*
X338583Y479134D03*
X161417Y479134D03*
X161417Y120866D03*
D14*
X155000Y950000D03*
D15*
X145000Y850000D03*
X155000Y750000D03*
X145000Y650000D03*
D16*
X1464173Y365154D03*
X1464173Y339563D03*
X1464173Y313976D03*
X1464173Y288386D03*
X1464173Y262795D03*
X1464173Y237205D03*
X1464173Y211614D03*
X1464173Y186024D03*
X1235823Y365154D03*
X1235823Y339563D03*
X1235823Y313976D03*
X1235823Y288386D03*
X1235823Y262795D03*
X1235823Y237205D03*
X1235823Y211614D03*
X1235823Y186024D03*
X1235823Y160433D03*
X1235823Y134846D03*
X1464173Y160433D03*
X1464173Y134846D03*
D17*
X1020000Y979528D03*
X1020000Y959843D03*
X1020000Y940157D03*
X1020000Y920472D03*
D18*
X1040157Y919000D03*
X1059843Y919000D03*
D17*
X1080000Y920472D03*
X1080000Y940157D03*
X1080000Y959843D03*
X1080000Y979528D03*
D18*
X1059843Y981000D03*
X1040157Y981000D03*
D12*
X830315Y150000D03*
X869685Y150000D03*
D19*
X561417Y511417D02*
X600000Y550000D01*
X561417Y511417D02*
X561417Y479134D01*
X900000Y450000D02*
X933465Y416535D01*
X933465Y400000D01*
X1464173Y134846D02*
X1464173Y114173D01*
X1450000Y100000D01*
X1000000Y100000D01*
X900000Y250000D02*
X900000Y366535D01*
X933465Y400000D01*
D20*
X900000Y450000D03*
X1000000Y100000D03*
X900000Y250000D03*
X600000Y550000D03*
D19*
X282283Y600000D02*
X161417Y479134D01*
X282283Y600000D02*
X450000Y600000D01*
X483465Y633465D01*
X483465Y700000D01*
X1464173Y160433D02*
X1539567Y160433D01*
X1550000Y150000D01*
X1550000Y100000D01*
X1500000Y50000D01*
X500000Y50000D01*
X450000Y100000D01*
X450000Y600000D01*
X416535Y700000D02*
X166535Y950000D01*
X155000Y950000D01*
X1033465Y750000D02*
X1100000Y750000D01*
X1200000Y650000D01*
X1350000Y650000D01*
X1383465Y683465D01*
X1383465Y750000D01*
X338583Y538583D02*
X338583Y479134D01*
X338583Y538583D02*
X350000Y550000D01*
X350000Y650000D02*
X400000Y700000D01*
X416535Y700000D01*
X1033465Y750000D02*
X1083465Y800000D01*
X1100000Y800000D01*
X1089843Y950000D02*
X1150000Y950000D01*
X1089843Y950000D02*
X1080000Y959843D01*
X1089843Y950000D02*
X1080000Y940157D01*
X738583Y479134D02*
X600000Y617717D01*
X600000Y750000D02*
X550000Y800000D01*
X450000Y800000D01*
X416535Y766535D01*
X416535Y700000D01*
X600000Y750000D02*
X600000Y617717D01*
X866535Y466535D02*
X866535Y400000D01*
X866535Y466535D02*
X900000Y500000D01*
X1050000Y650000D02*
X1050000Y733465D01*
X1033465Y750000D01*
X1383465Y750000D02*
X1400000Y750000D01*
X759449Y458268D02*
X738583Y479134D01*
X759449Y458268D02*
X808268Y458268D01*
X866535Y400000D01*
X1464173Y365154D02*
X1464173Y685827D01*
X1400000Y750000D01*
X155000Y950000D02*
X155000Y1145000D01*
X50000Y1250000D01*
X50000Y1300000D01*
X100000Y1350000D01*
X300000Y1350000D01*
X350000Y1300000D01*
X866535Y153150D02*
X869685Y150000D01*
X866535Y153150D02*
X866535Y400000D01*
D20*
X1050000Y650000D03*
X1100000Y800000D03*
X1150000Y950000D03*
X350000Y650000D03*
X900000Y500000D03*
X350000Y550000D03*
D19*
X1562795Y237205D02*
X1600000Y200000D01*
X1650000Y200000D01*
X1700000Y250000D01*
X1700000Y1100000D02*
X1600000Y1200000D01*
X700000Y1200000D02*
X650000Y1250000D01*
X650000Y1300000D01*
X1700000Y1100000D02*
X1700000Y250000D01*
X1562795Y237205D02*
X1464173Y237205D01*
D20*
X700000Y1200000D03*
X1600000Y1200000D03*
D19*
X830315Y369685D02*
X830315Y150000D01*
X830315Y369685D02*
X800000Y400000D01*
X800000Y500000D02*
X850000Y550000D01*
X1186024Y313976D02*
X1235823Y313976D01*
X950000Y550000D02*
X850000Y550000D01*
X950000Y550000D02*
X1186024Y313976D01*
X800000Y500000D02*
X800000Y550000D01*
X650000Y700000D02*
X650000Y750000D01*
X700000Y800000D01*
X900000Y1000000D02*
X999528Y1000000D01*
X1020000Y979528D01*
X650000Y700000D02*
X800000Y550000D01*
D20*
X900000Y1000000D03*
X800000Y400000D03*
X800000Y500000D03*
X700000Y800000D03*
D19*
X1330315Y950000D02*
X1330315Y1030315D01*
X1450000Y1150000D01*
X1600000Y1250000D02*
X1650000Y1200000D01*
X1600000Y1250000D02*
X1100000Y1250000D01*
X600000Y1200000D02*
X600000Y1100000D01*
X650000Y1050000D01*
X750000Y1050000D01*
X890157Y959843D02*
X1020000Y959843D01*
X890157Y959843D02*
X850000Y1000000D01*
X1161614Y288386D02*
X1235823Y288386D01*
X1161614Y288386D02*
X1150000Y300000D01*
X1350000Y1000000D02*
X1400000Y1000000D01*
X1350000Y1000000D02*
X1330315Y980315D01*
X1330315Y950000D01*
D20*
X1100000Y1250000D03*
X850000Y1000000D03*
X1650000Y1200000D03*
X750000Y1050000D03*
X1450000Y1150000D03*
X1150000Y300000D03*
X1400000Y1000000D03*
X600000Y1200000D03*
D19*
X1250000Y580315D02*
X1280315Y550000D01*
X1250000Y580315D02*
X1250000Y600000D01*
X1235823Y237205D02*
X1112795Y237205D01*
X1100000Y250000D01*
X1150000Y450000D02*
X1200000Y450000D01*
X1280315Y530315D01*
X1280315Y550000D01*
X750000Y1200000D02*
X750000Y1300000D01*
X800000Y1150000D02*
X900000Y1150000D01*
X1040157Y1009843D01*
X1040157Y981000D01*
X950000Y1150000D02*
X900000Y1150000D01*
X800000Y1150000D02*
X750000Y1200000D01*
D20*
X1150000Y450000D03*
X1250000Y600000D03*
X1100000Y250000D03*
X950000Y1150000D03*
D19*
X450000Y1300000D02*
X450000Y919685D01*
X430315Y900000D01*
X1210437Y339563D02*
X1235823Y339563D01*
X1250000Y800000D02*
X1200000Y850000D01*
X1150000Y850000D01*
X430315Y900000D02*
X400000Y930315D01*
X400000Y1100000D01*
X1100000Y1050000D02*
X1100000Y999528D01*
X1100000Y1050000D02*
X1050000Y1050000D01*
X1100000Y450000D02*
X1210437Y339563D01*
X1080000Y979528D02*
X1100000Y999528D01*
D20*
X1100000Y450000D03*
X1150000Y850000D03*
X1250000Y800000D03*
X1050000Y1050000D03*
X400000Y1100000D03*
D19*
X900000Y650000D02*
X1050000Y500000D01*
X1000000Y200000D02*
X1039567Y160433D01*
X1235823Y160433D01*
X1040157Y899000D02*
X1040157Y919000D01*
X1040157Y899000D02*
X1021157Y880000D01*
X980000Y880000D01*
X950000Y850000D01*
X900000Y850000D01*
X850000Y800000D01*
X850000Y750000D01*
X900000Y700000D01*
X900000Y650000D01*
D20*
X1050000Y500000D03*
X1000000Y200000D03*
D19*
X1015154Y134846D02*
X1235823Y134846D01*
X1015154Y134846D02*
X950000Y200000D01*
X1059843Y859843D02*
X1059843Y919000D01*
X1059843Y859843D02*
X1050000Y850000D01*
D20*
X1050000Y850000D03*
X950000Y200000D03*
D19*
X800000Y630315D02*
X730315Y700000D01*
X800000Y630315D02*
X800000Y600000D01*
X966535Y666535D02*
X966535Y750000D01*
X966535Y666535D02*
X950000Y650000D01*
X990157Y940157D02*
X1020000Y940157D01*
X990157Y940157D02*
X950000Y900000D01*
X1000000Y800000D02*
X966535Y766535D01*
X966535Y750000D01*
D20*
X950000Y900000D03*
X800000Y600000D03*
X1000000Y800000D03*
X950000Y650000D03*
D19*
X195000Y800000D02*
X145000Y850000D01*
X195000Y800000D02*
X250000Y800000D01*
X450000Y850000D02*
X469685Y869685D01*
X469685Y900000D01*
X1319685Y550000D02*
X1400000Y630315D01*
X1400000Y650000D01*
X1450000Y900000D02*
X1400000Y950000D01*
X1369685Y950000D01*
X1250000Y379331D02*
X1235823Y365154D01*
X1250000Y379331D02*
X1250000Y450000D01*
X1319685Y519685D02*
X1319685Y550000D01*
X1319685Y519685D02*
X1250000Y450000D01*
X1319685Y550000D02*
X1350000Y519685D01*
X1350000Y500000D01*
X1300000Y450000D01*
X145000Y850000D02*
X100000Y895000D01*
X100000Y1100000D01*
X200000Y1200000D02*
X250000Y1250000D01*
X250000Y1300000D01*
X469685Y900000D02*
X719685Y900000D01*
X769685Y950000D01*
X769685Y700000D01*
X850000Y700000D01*
X1000000Y650000D02*
X1050000Y600000D01*
X1200000Y550000D02*
X1200000Y500000D01*
X1200000Y550000D02*
X1150000Y600000D01*
X1050000Y600000D01*
D20*
X200000Y1200000D03*
X1300000Y450000D03*
X450000Y850000D03*
X1200000Y500000D03*
X100000Y1100000D03*
X850000Y700000D03*
X1450000Y900000D03*
X1400000Y650000D03*
X250000Y800000D03*
D19*
X1000000Y700000D02*
X1000000Y650000D01*
D20*
X1000000Y700000D03*
D19*
X1536024Y186024D02*
X1550000Y200000D01*
X1400000Y1150000D02*
X1100000Y1150000D01*
X950000Y1300000D01*
X1464173Y186024D02*
X1536024Y186024D01*
D20*
X1550000Y200000D03*
X1400000Y1150000D03*
D19*
X145000Y595000D02*
X100000Y550000D01*
X145000Y595000D02*
X145000Y650000D01*
X1650000Y350000D02*
X1650000Y1050000D01*
X1588386Y288386D02*
X1464173Y288386D01*
X1588386Y288386D02*
X1650000Y350000D01*
D20*
X1650000Y1050000D03*
X100000Y550000D03*
D19*
X1464173Y262795D02*
X1637205Y262795D01*
X1650000Y250000D01*
D20*
X1650000Y250000D03*
D19*
X1316535Y750000D02*
X1200000Y750000D01*
X1100000Y850000D01*
X1100000Y900472D02*
X1080000Y920472D01*
X1100000Y900472D02*
X1100000Y850000D01*
X1150000Y900000D02*
X1200000Y950000D01*
X1150000Y900000D02*
X1100472Y900000D01*
X1100000Y900472D01*
X880315Y1100000D02*
X730315Y950000D01*
X880315Y1100000D02*
X900000Y1100000D01*
D20*
X1200000Y950000D03*
X1100000Y850000D03*
X900000Y1100000D03*
D19*
X850000Y1250000D02*
X850000Y1300000D01*
X1063976Y186024D02*
X1235823Y186024D01*
X1063976Y186024D02*
X1050000Y200000D01*
X1050000Y350000D01*
X1250000Y900000D02*
X1250000Y1000000D01*
X1150000Y1100000D01*
X1050000Y1100000D01*
X950000Y1200000D01*
X900000Y1200000D01*
X850000Y1250000D01*
D20*
X1050000Y350000D03*
X1250000Y900000D03*
M02*
