M48
;GenerationSoftware,Autodesk,EAGLE,9.6.2*%
;CreationDate,2022-04-18T08:18:27Z*%
FMAT,2
ICI,OFF
INCH,TZ,00.0000
T3C0.0217
T2C0.0394
T1C0.0400
%
G90
M72
T1
X1450Y6500
X1550Y9500
X1450Y8500
X1550Y7500
T2
X6500Y13000
X1500Y13000
X2500Y13000
X3500Y13000
X4500Y13000
X5500Y13000
X7500Y13000
X8500Y13000
X9500Y13000
X10500Y13000
X11500Y13000
T3
X7000Y8000
X11000Y12500
X8500Y10000
X16500Y12000
X7500Y10500
X14500Y11500
X11500Y3000
X14000Y10000
X6000Y12000
X11500Y4500
X12500Y6000
X11000Y2500
X9500Y11500
X11000Y4500
X11500Y8500
X12500Y8000
X10500Y10500
X4000Y11000
X10500Y5000
X10000Y2000
X10500Y8500
X9500Y2000
X9500Y9000
X3500Y5500
X10000Y8000
X9500Y6500
X2000Y12000
X13000Y4500
X4500Y8500
X12000Y5000
X1000Y11000
X8500Y7000
X14500Y9000
X14000Y6500
X2500Y8000
X10000Y7000
X15500Y2000
X14000Y11500
X16500Y10500
X1000Y5500
X16500Y2500
X12000Y9500
X9000Y4500
X9000Y11000
X10500Y3500
X12500Y9000
X10000Y1000
X9000Y2500
X6000Y5500
X10500Y6500
X11000Y8000
X8000Y6000
X11500Y9500
X3500Y6500
X9000Y5000
X7000Y12000
X16000Y12000
X9000Y10000
X8000Y4000
X8000Y5000
X11000Y8500
M30