G04 EAGLE Gerber RS-274X export*
G75*
%MOIN*%
%FSLAX36Y36*%
%LPD*%
%INBottom Copper Layer*%
%IPPOS*%
%AMOC8*
5,1,8,0,0,1.08239X$1,22.5*%
G01*
%ADD10C,0.066000*%
%ADD11R,0.074000X0.074000*%
%ADD12C,0.074000*%
%ADD13C,0.006000*%
%ADD14C,0.040000*%
%ADD15C,0.041654*%


D10*
X1050000Y960000D03*
X950000Y960000D03*
X850000Y960000D03*
X750000Y960000D03*
X650000Y960000D03*
X550000Y960000D03*
X450000Y960000D03*
X350000Y960000D03*
X250000Y960000D03*
X150000Y960000D03*
X50000Y960000D03*
D11*
X1610000Y955000D03*
D12*
X1510000Y965000D03*
X1410000Y955000D03*
X1310000Y965000D03*
D13*
X762500Y572500D02*
X958750Y376250D01*
X958750Y287500D01*
D14*
X762500Y572500D03*
X958750Y287500D03*
D15*
X740000Y780000D03*
D13*
X930000Y780000D01*
D15*
X930000Y780000D03*
X1470000Y460000D03*
D13*
X1470000Y120000D01*
D15*
X1470000Y120000D03*
D13*
X662500Y278750D02*
X622500Y278750D01*
X590000Y311250D01*
X485000Y311250D02*
X426250Y370000D01*
X485000Y311250D02*
X590000Y311250D01*
D14*
X662500Y278750D03*
X590000Y311250D03*
X426250Y370000D03*
D13*
X746250Y522500D02*
X756250Y522500D01*
X746250Y522500D02*
X683750Y460000D01*
D14*
X683750Y460000D03*
X756250Y522500D03*
D13*
X586250Y217500D02*
X516250Y147500D01*
X586250Y217500D02*
X725000Y217500D01*
D14*
X516250Y147500D03*
X725000Y217500D03*
D13*
X511250Y106250D02*
X496250Y91250D01*
X701250Y106250D02*
X751250Y156250D01*
X701250Y106250D02*
X511250Y106250D01*
D14*
X496250Y91250D03*
X751250Y156250D03*
D13*
X551250Y261250D02*
X461250Y261250D01*
X360000Y362500D01*
X271250Y362500D01*
D14*
X551250Y261250D03*
X271250Y362500D03*
D13*
X950000Y960000D02*
X1006250Y1016250D01*
X1456250Y1016250D01*
X1506250Y966250D01*
X1510000Y965000D01*
X705000Y906250D02*
X496250Y697500D01*
X496250Y687500D01*
X705000Y906250D02*
X896250Y906250D01*
X950000Y960000D01*
D14*
X496250Y687500D03*
D13*
X223750Y492500D02*
X223750Y403750D01*
X223750Y492500D02*
X537500Y492500D01*
D14*
X223750Y403750D03*
X537500Y492500D03*
D13*
X608750Y688750D02*
X617500Y697500D01*
X1043750Y697500D01*
X1306250Y960000D01*
X1310000Y965000D01*
D14*
X608750Y688750D03*
D13*
X593750Y53750D02*
X812500Y53750D01*
X375000Y53750D02*
X318750Y110000D01*
X375000Y53750D02*
X593750Y53750D01*
D14*
X593750Y53750D03*
X812500Y53750D03*
X318750Y110000D03*
D13*
X591250Y498750D02*
X621250Y498750D01*
X591250Y498750D02*
X206250Y883750D01*
X206250Y1003750D01*
X306250Y1003750D01*
X350000Y960000D01*
D14*
X621250Y498750D03*
M02*
