G04 EAGLE Gerber RS-274X export*
G75*
%MOIN*%
%FSLAX36Y36*%
%LPD*%
%INTop Copper Layer*%
%IPPOS*%
%AMOC8*
5,1,8,0,0,1.08239X$1,22.5*%
G01*
%ADD10R,0.039370X0.043307*%
%ADD11R,0.043307X0.039370*%
%ADD12C,0.066000*%
%ADD13R,0.023622X0.027559*%
%ADD14R,0.027559X0.023622*%
%ADD15R,0.082677X0.055118*%
%ADD16R,0.074000X0.074000*%
%ADD17C,0.074000*%
%ADD18R,0.011811X0.047236*%
%ADD19R,0.014000X0.017000*%
%ADD20R,0.017000X0.014000*%
%ADD21C,0.006000*%
%ADD22C,0.040000*%
%ADD23C,0.041654*%


D10*
X1070000Y733465D03*
X1070000Y666535D03*
D11*
X246535Y610000D03*
X313465Y610000D03*
X856535Y100000D03*
X923465Y100000D03*
D10*
X1070000Y333465D03*
X1070000Y266535D03*
D12*
X1050000Y960000D03*
X950000Y960000D03*
X850000Y960000D03*
X750000Y960000D03*
X650000Y960000D03*
X550000Y960000D03*
X450000Y960000D03*
X350000Y960000D03*
X250000Y960000D03*
X150000Y960000D03*
X50000Y960000D03*
D13*
X270315Y470000D03*
X309685Y470000D03*
X270315Y280000D03*
X309685Y280000D03*
X280315Y150000D03*
X319685Y150000D03*
D14*
X380000Y459685D03*
X380000Y420315D03*
D15*
X1619134Y358583D03*
X1260866Y358583D03*
X1260866Y181417D03*
X1619134Y181417D03*
X1619134Y778583D03*
X1260866Y778583D03*
X1260866Y601417D03*
X1619134Y601417D03*
D16*
X1610000Y955000D03*
D17*
X1510000Y965000D03*
X1410000Y955000D03*
X1310000Y965000D03*
D18*
X534846Y624173D03*
X560437Y624173D03*
X586024Y624173D03*
X611614Y624173D03*
X637205Y624173D03*
X662795Y624173D03*
X688386Y624173D03*
X713976Y624173D03*
X534846Y395823D03*
X560437Y395823D03*
X586024Y395823D03*
X611614Y395823D03*
X637205Y395823D03*
X662795Y395823D03*
X688386Y395823D03*
X713976Y395823D03*
X739567Y395823D03*
X765154Y395823D03*
X739567Y624173D03*
X765154Y624173D03*
D19*
X649528Y150000D03*
X629843Y150000D03*
X610157Y150000D03*
X590472Y150000D03*
D20*
X589000Y129843D03*
X589000Y110157D03*
D19*
X590472Y90000D03*
X610157Y90000D03*
X629843Y90000D03*
X649528Y90000D03*
D20*
X651000Y110157D03*
X651000Y129843D03*
D21*
X1106250Y297500D02*
X1256250Y297500D01*
X1256250Y185000D01*
X1106250Y297500D02*
X1070000Y266535D01*
X1256250Y185000D02*
X1260866Y181417D01*
X762500Y572500D02*
X762500Y622500D01*
X979715Y266535D02*
X1070000Y266535D01*
X979715Y266535D02*
X958750Y287500D01*
X762500Y622500D02*
X765154Y624173D01*
D22*
X762500Y572500D03*
X958750Y287500D03*
D21*
X1131535Y605000D02*
X1256250Y605000D01*
X1131535Y605000D02*
X1070000Y666535D01*
X1256250Y605000D02*
X1256250Y603750D01*
X1260866Y601417D01*
X739567Y624173D02*
X739567Y779567D01*
X740000Y780000D01*
D23*
X740000Y780000D03*
D21*
X940000Y666535D02*
X1070000Y666535D01*
X940000Y666535D02*
X930000Y676535D01*
X930000Y780000D01*
D23*
X930000Y780000D03*
D21*
X381250Y547500D02*
X381250Y460935D01*
X380000Y459685D01*
X381250Y547500D02*
X318750Y610000D01*
X537500Y628750D02*
X537500Y710000D01*
X518750Y728750D01*
X318750Y728750D01*
X318750Y641250D02*
X318750Y610000D01*
X318750Y641250D02*
X318750Y728750D01*
X534846Y624173D02*
X537500Y628750D01*
X318750Y610000D02*
X313465Y610000D01*
X612500Y91250D02*
X625000Y91250D01*
X612500Y91250D02*
X610157Y90000D01*
X625000Y91250D02*
X629843Y90000D01*
X587500Y153750D02*
X587500Y160000D01*
X568750Y178750D01*
X455000Y178750D01*
X455000Y78750D01*
X511250Y22500D01*
X625000Y22500D01*
X625000Y85000D01*
X590472Y150000D02*
X587500Y153750D01*
X629843Y90000D02*
X625000Y85000D01*
X923465Y100000D02*
X925000Y103750D01*
X918750Y22500D02*
X625000Y22500D01*
X918750Y22500D02*
X918750Y97500D01*
X923465Y100000D01*
X318750Y641250D02*
X182500Y641250D01*
X182500Y202500D01*
X306250Y78750D01*
X455000Y78750D01*
X1031417Y778583D02*
X850000Y960000D01*
X1260866Y438583D02*
X1260866Y358583D01*
X1095118Y358583D01*
X1070000Y333465D01*
X1370000Y460000D02*
X1470000Y460000D01*
D23*
X1470000Y460000D03*
D21*
X1282283Y460000D02*
X1260866Y438583D01*
X1282283Y460000D02*
X1370000Y460000D01*
X1370000Y778750D01*
X1470000Y120000D02*
X1453750Y103750D01*
D23*
X1470000Y120000D03*
D21*
X1453750Y103750D02*
X925000Y103750D01*
X1031417Y778583D02*
X1070000Y778583D01*
X1260866Y778583D01*
X1370000Y778750D02*
X1433750Y778750D01*
X1610000Y955000D01*
X1070000Y778583D02*
X1070000Y733465D01*
X1260866Y778583D02*
X1261033Y778750D01*
X1370000Y778750D01*
X662500Y628750D02*
X656250Y635000D01*
X656250Y853750D01*
X550000Y960000D01*
X662500Y628750D02*
X662795Y624173D01*
X662500Y166250D02*
X650000Y153750D01*
X662500Y166250D02*
X662500Y278750D01*
X590000Y311250D02*
X587500Y313750D01*
X587500Y391250D01*
X650000Y153750D02*
X649528Y150000D01*
X587500Y391250D02*
X586024Y395823D01*
X380000Y416250D02*
X380000Y420315D01*
X380000Y416250D02*
X426250Y370000D01*
D22*
X662500Y278750D03*
X590000Y311250D03*
X426250Y370000D03*
D21*
X631250Y353750D02*
X631250Y153750D01*
X631250Y353750D02*
X612500Y372500D01*
X612500Y391250D01*
X631250Y153750D02*
X629843Y150000D01*
X612500Y391250D02*
X611614Y395823D01*
X656250Y128750D02*
X693750Y128750D01*
X693750Y347500D01*
X662500Y378750D01*
X662500Y391250D01*
X651000Y129843D02*
X656250Y128750D01*
X662500Y391250D02*
X662795Y395823D01*
X683750Y400459D02*
X688386Y395823D01*
X683750Y400459D02*
X683750Y460000D01*
X756250Y522500D02*
X793750Y560000D01*
X793750Y916250D01*
X750000Y960000D01*
D22*
X683750Y460000D03*
X756250Y522500D03*
D21*
X587500Y128750D02*
X516250Y128750D01*
X516250Y147500D01*
X725000Y217500D02*
X737500Y230000D01*
X737500Y391250D01*
X589000Y129843D02*
X587500Y128750D01*
X737500Y391250D02*
X739567Y395823D01*
D22*
X516250Y147500D03*
X725000Y217500D03*
D21*
X587500Y110000D02*
X496250Y110000D01*
X496250Y91250D01*
X751250Y156250D02*
X768750Y173750D01*
X768750Y391250D01*
X589000Y110157D02*
X587500Y110000D01*
X768750Y391250D02*
X765154Y395823D01*
D22*
X496250Y91250D03*
X751250Y156250D03*
D21*
X612500Y153750D02*
X612500Y200000D01*
X551250Y261250D01*
X275000Y366250D02*
X271250Y362500D01*
X275000Y366250D02*
X275000Y466250D01*
X612500Y153750D02*
X610157Y150000D01*
X275000Y466250D02*
X270315Y470000D01*
X268750Y591250D02*
X250000Y610000D01*
X268750Y591250D02*
X268750Y472500D01*
X250000Y610000D02*
X246535Y610000D01*
X268750Y472500D02*
X270315Y470000D01*
D22*
X551250Y261250D03*
X271250Y362500D03*
D21*
X312500Y310000D02*
X312500Y466250D01*
X312500Y310000D02*
X312500Y282500D01*
X309685Y280000D01*
X312500Y466250D02*
X309685Y470000D01*
X312500Y160000D02*
X318750Y153750D01*
X319685Y150000D01*
X312500Y276250D02*
X309685Y280000D01*
X456250Y647500D02*
X496250Y687500D01*
X456250Y647500D02*
X456250Y395823D01*
X534846Y395823D01*
D22*
X496250Y687500D03*
D21*
X312500Y276250D02*
X312500Y160000D01*
X534846Y324846D02*
X534846Y395823D01*
X520000Y310000D02*
X312500Y310000D01*
X520000Y310000D02*
X534846Y324846D01*
X712500Y628750D02*
X706250Y635000D01*
X706250Y922500D01*
X693750Y935000D01*
X693750Y978750D01*
X646250Y1026250D01*
X250000Y1026250D01*
X250000Y960000D01*
X712500Y628750D02*
X713976Y624173D01*
X650000Y91250D02*
X807500Y91250D01*
X807500Y406250D01*
X672500Y541250D01*
X587500Y541250D01*
X587500Y542500D02*
X587500Y622500D01*
X587500Y542500D02*
X587500Y541250D01*
X650000Y91250D02*
X649528Y90000D01*
X587500Y622500D02*
X586024Y624173D01*
X587500Y542500D02*
X537500Y492500D01*
X223750Y403750D02*
X223750Y280000D01*
X270315Y280000D01*
D22*
X223750Y403750D03*
X537500Y492500D03*
D21*
X611614Y624173D02*
X608750Y627037D01*
X608750Y688750D01*
D22*
X608750Y688750D03*
D21*
X637500Y622500D02*
X643750Y616250D01*
X643750Y591250D01*
X743750Y491250D01*
X843750Y1016250D02*
X1406250Y1016250D01*
X1406250Y960000D01*
X637205Y624173D02*
X637500Y622500D01*
X1406250Y960000D02*
X1410000Y955000D01*
X791250Y491250D02*
X743750Y491250D01*
X840000Y910603D02*
X808000Y942603D01*
X808000Y980500D01*
X843750Y1016250D01*
X840000Y540000D02*
X791250Y491250D01*
X840000Y540000D02*
X840000Y910603D01*
X593750Y85000D02*
X593750Y53750D01*
X812500Y53750D02*
X856250Y97500D01*
X593750Y85000D02*
X590472Y90000D01*
X856250Y97500D02*
X856535Y100000D01*
X318750Y110000D02*
X281250Y147500D01*
X280315Y150000D01*
D22*
X593750Y53750D03*
X812500Y53750D03*
X318750Y110000D03*
D21*
X687500Y628750D02*
X681250Y635000D01*
X681250Y866250D01*
X603750Y943750D01*
X603750Y988750D01*
X588750Y1003750D01*
X450000Y1003750D01*
X450000Y960000D01*
X687500Y628750D02*
X688386Y624173D01*
X631250Y403750D02*
X637500Y397500D01*
X631250Y488750D02*
X621250Y498750D01*
X631250Y488750D02*
X631250Y403750D01*
X637500Y397500D02*
X637205Y395823D01*
D22*
X621250Y498750D03*
M02*
