M48
;GenerationSoftware,Autodesk,EAGLE,9.6.2*%
;CreationDate,2022-04-25T12:36:24Z*%
FMAT,2
ICI,OFF
INCH,TZ,00.0000
T4C0.0200
T3C0.0217
T2C0.0394
T1C0.0400
%
G90
M72
T1
X13100Y9650
X16100Y9550
X15100Y9650
X14100Y9550
T2
X10500Y9600
X9500Y9600
X8500Y9600
X7500Y9600
X6500Y9600
X5500Y9600
X4500Y9600
X3500Y9600
X2500Y9600
X1500Y9600
X500Y9600
T3
X14700Y1200
X7400Y7800
X9300Y7800
X14700Y4600
T4
X5375Y4925
X7625Y5725
X5938Y538
X8125Y538
X3188Y1100
X6213Y4988
X9588Y2875
X6625Y2788
X5900Y3113
X4263Y3700
X6838Y4600
X7563Y5225
X5163Y1475
X7250Y2175
X4963Y913
X7513Y1563
X5513Y2613
X2713Y3625
X4963Y6875
X2238Y4038
X6088Y6888
M30